<svg version="1.1" id="Layer_1" xmlns="http://www.w3.org/2000/svg" xmlns:xlink="http://www.w3.org/1999/xlink" x="0px" y="0px"
	 width="100%" viewBox="0 0 1024 1024" enable-background="new 0 0 1024 1024" xml:space="preserve">
<path fill="#1A2C42" opacity="1.000000" stroke="none" 
	d="
M446.000000,1025.000000 
	C297.333344,1025.000000 149.166672,1025.000000 1.000000,1025.000000 
	C1.000000,683.666687 1.000000,342.333344 1.000000,1.000000 
	C342.333344,1.000000 683.666687,1.000000 1025.000000,1.000000 
	C1025.000000,342.333344 1025.000000,683.666687 1025.000000,1025.000000 
	C832.166687,1025.000000 639.333313,1025.000000 446.000000,1025.000000 
M370.929779,493.631470 
	C392.079681,549.309387 432.176880,583.631226 490.686493,592.298401 
	C552.159607,601.404419 602.209778,578.248840 637.523193,527.171265 
	C664.581909,488.033386 669.175049,444.535767 655.835938,398.442963 
	C637.539490,408.238342 619.929688,417.614777 602.421753,427.177856 
	C601.459412,427.703491 600.965271,429.762207 600.895996,431.139648 
	C600.345886,442.066071 601.476624,453.323639 599.239624,463.874939 
	C590.577759,504.731140 552.463440,533.966797 510.926239,532.785828 
	C467.177307,531.541809 431.624786,500.780670 424.723145,458.200165 
	C415.143219,399.095703 467.212524,347.485504 526.356995,357.852081 
	C536.355164,359.604523 545.991638,363.420532 556.048218,366.357025 
	C561.995728,347.622742 568.160522,328.204376 574.298523,308.870270 
	C528.366943,286.976532 464.428253,289.015076 413.937775,332.086792 
	C368.294403,371.023651 351.024231,434.406525 370.929779,493.631470 
M594.433350,341.913910 
	C592.315247,334.608276 590.197083,327.302673 588.078918,319.997040 
	C587.763733,320.018951 587.448547,320.040863 587.133301,320.062744 
	C575.384460,358.489166 563.635620,396.915558 551.591858,436.306427 
	C585.802917,418.088562 618.866882,400.481506 652.635071,382.499481 
	C636.742126,379.911469 621.843567,377.367035 606.896606,375.149231 
	C603.831787,374.694458 602.747681,373.286774 602.066711,370.615814 
	C599.687561,361.284027 597.160217,351.989990 594.433350,341.913910 
M637.703247,624.096741 
	C636.266785,624.199890 634.830383,624.303101 632.970947,624.436646 
	C632.970947,634.643433 632.970947,644.512146 632.970947,655.166016 
	C631.594482,654.019348 630.883057,653.409851 630.154236,652.822021 
	C617.545654,642.654175 598.233032,645.413025 589.203064,658.752014 
	C583.361511,667.381165 582.364746,676.996277 584.089966,686.989075 
	C588.089233,710.153748 613.172913,719.744995 631.270996,705.101440 
	C631.710815,704.745483 632.291748,704.563965 633.006836,704.198975 
	C633.210449,706.662781 633.382568,708.745483 633.540527,710.657471 
	C640.002197,710.657471 646.053406,710.657471 652.264282,710.657471 
	C652.264282,681.687317 652.264282,653.121094 652.264282,624.092957 
	C647.556519,624.092957 643.109192,624.092957 637.703247,624.096741 
M368.415466,686.499878 
	C368.415466,694.598450 368.415466,702.697083 368.415466,710.698608 
	C375.322784,710.698608 381.385712,710.698608 387.534119,710.698608 
	C388.670319,701.665466 384.372253,691.108582 396.513977,685.855225 
	C400.974609,692.855347 405.541992,700.139526 410.258942,707.325562 
	C411.186981,708.739319 412.640594,710.751221 413.939972,710.819885 
	C420.628693,711.173706 427.346161,710.983887 435.257812,710.983887 
	C426.294495,697.350769 418.044464,684.802551 409.780670,672.233459 
	C414.071503,667.962585 417.907318,664.040955 421.859467,660.240173 
	C425.757080,656.491882 429.772430,652.865967 434.705017,648.286926 
	C432.218750,648.034058 431.600128,647.924255 430.980011,647.914917 
	C410.084717,647.601257 410.090179,647.608032 395.365570,662.634094 
	C393.149261,664.895752 390.854340,667.080566 387.638977,670.241516 
	C387.638977,654.002563 387.638977,639.264404 387.638977,624.381409 
	C381.098114,624.381409 375.012970,624.381409 368.422577,624.381409 
	C368.422577,644.924438 368.422577,665.212158 368.415466,686.499878 
M356.789856,681.326233 
	C356.848999,656.341614 334.674805,640.884460 309.999939,648.935730 
	C298.289642,652.756775 291.047302,661.104370 288.691742,673.125427 
	C286.362640,685.011230 289.191010,695.714966 298.610962,703.832581 
	C309.421570,713.148499 322.009796,714.634216 335.106140,710.044189 
	C348.047119,705.508606 355.180634,695.878174 356.789856,681.326233 
M547.827820,647.455994 
	C544.173523,647.331604 540.497620,646.890259 536.868774,647.138367 
	C521.929810,648.159363 509.803253,658.663147 506.900055,672.836670 
	C502.329224,695.151306 518.332642,712.823425 542.495667,712.144104 
	C559.593506,711.663391 573.387451,699.428711 574.921387,683.383911 
	C576.618530,665.631104 566.253967,651.525085 547.827820,647.455994 
M708.771118,648.618286 
	C681.582031,641.472900 661.607361,658.097595 664.932434,685.104675 
	C667.269043,704.083435 686.046204,715.823853 706.973328,711.421082 
	C714.583435,709.820007 720.903320,706.281006 725.496277,699.628906 
	C721.682922,696.407532 718.061890,693.348633 714.468750,690.313293 
	C702.963501,700.801086 687.985840,698.683289 684.254028,685.652222 
	C699.124756,685.652222 713.828430,685.652222 728.435181,685.652222 
	C730.758057,667.732544 723.958435,654.786438 708.771118,648.618286 
M496.839722,694.539368 
	C493.204468,692.258850 489.569214,689.978333 485.994141,687.735596 
	C476.707031,696.713989 468.243713,698.168762 461.834137,692.049194 
	C455.540131,686.039978 455.327484,673.814209 461.407440,667.516479 
	C467.725922,660.971680 476.184418,662.142456 486.002106,671.122192 
	C490.454895,668.194885 494.978943,665.220703 500.145813,661.823975 
	C498.154083,659.302734 496.672821,656.938477 494.726990,655.053833 
	C488.232605,648.763794 480.102173,646.911682 471.354279,646.860901 
	C456.823944,646.776611 444.344025,654.678284 439.745026,666.947205 
	C434.530243,680.858887 438.335938,696.016968 449.292175,704.972961 
	C459.425720,713.256531 477.737091,714.777771 488.767151,707.798035 
	C492.334137,705.540833 495.235046,702.185120 498.283844,699.173218 
	C499.918060,697.558777 499.691223,695.932617 496.839722,694.539368 
z"/>
<path fill="#FCFCFC" opacity="1.000000" stroke="none" 
	d="
M370.795654,493.262573 
	C351.024231,434.406525 368.294403,371.023651 413.937775,332.086792 
	C464.428253,289.015076 528.366943,286.976532 574.298523,308.870270 
	C568.160522,328.204376 561.995728,347.622742 556.048218,366.357025 
	C545.991638,363.420532 536.355164,359.604523 526.356995,357.852081 
	C467.212524,347.485504 415.143219,399.095703 424.723145,458.200165 
	C431.624786,500.780670 467.177307,531.541809 510.926239,532.785828 
	C552.463440,533.966797 590.577759,504.731140 599.239624,463.874939 
	C601.476624,453.323639 600.345886,442.066071 600.895996,431.139648 
	C600.965271,429.762207 601.459412,427.703491 602.421753,427.177856 
	C619.929688,417.614777 637.539490,408.238342 655.835938,398.442963 
	C669.175049,444.535767 664.581909,488.033386 637.523193,527.171265 
	C602.209778,578.248840 552.159607,601.404419 490.686493,592.298401 
	C432.176880,583.631226 392.079681,549.309387 370.795654,493.262573 
z"/>
<path fill="#F9FAFB" opacity="1.000000" stroke="none" 
	d="
M594.561279,342.297791 
	C597.160217,351.989990 599.687561,361.284027 602.066711,370.615814 
	C602.747681,373.286774 603.831787,374.694458 606.896606,375.149231 
	C621.843567,377.367035 636.742126,379.911469 652.635071,382.499481 
	C618.866882,400.481506 585.802917,418.088562 551.591858,436.306427 
	C563.635620,396.915558 575.384460,358.489166 587.133301,320.062744 
	C587.448547,320.040863 587.763733,320.018951 588.078918,319.997040 
	C590.197083,327.302673 592.315247,334.608276 594.561279,342.297791 
z"/>
<path fill="#F7F9F9" opacity="1.000000" stroke="none" 
	d="
M638.182556,624.094849 
	C643.109192,624.092957 647.556519,624.092957 652.264282,624.092957 
	C652.264282,653.121094 652.264282,681.687317 652.264282,710.657471 
	C646.053406,710.657471 640.002197,710.657471 633.540527,710.657471 
	C633.382568,708.745483 633.210449,706.662781 633.006836,704.198975 
	C632.291748,704.563965 631.710815,704.745483 631.270996,705.101440 
	C613.172913,719.744995 588.089233,710.153748 584.089966,686.989075 
	C582.364746,676.996277 583.361511,667.381165 589.203064,658.752014 
	C598.233032,645.413025 617.545654,642.654175 630.154236,652.822021 
	C630.883057,653.409851 631.594482,654.019348 632.970947,655.166016 
	C632.970947,644.512146 632.970947,634.643433 632.970947,624.436646 
	C634.830383,624.303101 636.266785,624.199890 638.182556,624.094849 
M604.458618,686.710876 
	C604.776428,687.293762 605.052795,687.903992 605.418274,688.455322 
	C610.137939,695.575562 617.824280,697.783142 624.859375,694.052490 
	C631.856079,690.342285 635.083923,680.664429 631.944641,672.809143 
	C628.947876,665.310425 621.457458,661.658020 613.678589,663.902527 
	C605.180908,666.354370 601.296204,675.355469 604.458618,686.710876 
z"/>
<path fill="#F6F7F8" opacity="1.000000" stroke="none" 
	d="
M368.419006,685.999878 
	C368.422577,665.212158 368.422577,644.924438 368.422577,624.381409 
	C375.012970,624.381409 381.098114,624.381409 387.638977,624.381409 
	C387.638977,639.264404 387.638977,654.002563 387.638977,670.241516 
	C390.854340,667.080566 393.149261,664.895752 395.365570,662.634094 
	C410.090179,647.608032 410.084717,647.601257 430.980011,647.914917 
	C431.600128,647.924255 432.218750,648.034058 434.705017,648.286926 
	C429.772430,652.865967 425.757080,656.491882 421.859467,660.240173 
	C417.907318,664.040955 414.071503,667.962585 409.780670,672.233459 
	C418.044464,684.802551 426.294495,697.350769 435.257812,710.983887 
	C427.346161,710.983887 420.628693,711.173706 413.939972,710.819885 
	C412.640594,710.751221 411.186981,708.739319 410.258942,707.325562 
	C405.541992,700.139526 400.974609,692.855347 396.513977,685.855225 
	C384.372253,691.108582 388.670319,701.665466 387.534119,710.698608 
	C381.385712,710.698608 375.322784,710.698608 368.415466,710.698608 
	C368.415466,702.697083 368.415466,694.598450 368.419006,685.999878 
z"/>
<path fill="#F7F9F9" opacity="1.000000" stroke="none" 
	d="
M356.778931,681.770874 
	C355.180634,695.878174 348.047119,705.508606 335.106140,710.044189 
	C322.009796,714.634216 309.421570,713.148499 298.610962,703.832581 
	C289.191010,695.714966 286.362640,685.011230 288.691742,673.125427 
	C291.047302,661.104370 298.289642,652.756775 309.999939,648.935730 
	C334.674805,640.884460 356.848999,656.341614 356.778931,681.770874 
M319.159973,695.868652 
	C320.486115,695.935303 321.814362,696.087341 323.138000,696.054138 
	C329.325653,695.899292 333.551361,692.626892 335.741791,687.116943 
	C338.440338,680.328735 337.865265,673.670227 332.899017,667.972778 
	C328.868347,663.348694 323.596069,662.456787 317.876892,664.063599 
	C312.088043,665.689941 308.021698,671.573975 307.649323,678.556824 
	C307.198151,687.017151 310.624603,692.483093 319.159973,695.868652 
z"/>
<path fill="#F7F9F9" opacity="1.000000" stroke="none" 
	d="
M548.250977,647.558899 
	C566.253967,651.525085 576.618530,665.631104 574.921387,683.383911 
	C573.387451,699.428711 559.593506,711.663391 542.495667,712.144104 
	C518.332642,712.823425 502.329224,695.151306 506.900055,672.836670 
	C509.803253,658.663147 521.929810,648.159363 536.868774,647.138367 
	C540.497620,646.890259 544.173523,647.331604 548.250977,647.558899 
M527.544128,671.375916 
	C523.568604,681.438110 526.678833,691.493774 534.789490,694.800964 
	C542.084595,697.775513 550.148010,694.946533 553.519775,688.229492 
	C557.646057,680.009338 555.112610,669.176392 548.133179,665.196228 
	C541.028198,661.144531 532.924377,663.335754 527.544128,671.375916 
z"/>
<path fill="#F6F7F8" opacity="1.000000" stroke="none" 
	d="
M709.147461,648.745605 
	C723.958435,654.786438 730.758057,667.732544 728.435181,685.652222 
	C713.828430,685.652222 699.124756,685.652222 684.254028,685.652222 
	C687.985840,698.683289 702.963501,700.801086 714.468750,690.313293 
	C718.061890,693.348633 721.682922,696.407532 725.496277,699.628906 
	C720.903320,706.281006 714.583435,709.820007 706.973328,711.421082 
	C686.046204,715.823853 667.269043,704.083435 664.932434,685.104675 
	C661.607361,658.097595 681.582031,641.472900 709.147461,648.745605 
M691.694214,662.773254 
	C686.562439,664.732422 684.700806,668.853271 683.966309,674.145264 
	C692.772095,674.145264 701.228516,674.145264 709.756775,674.145264 
	C708.048035,664.101929 702.802673,660.695007 691.694214,662.773254 
z"/>
<path fill="#F7F9F9" opacity="1.000000" stroke="none" 
	d="
M497.122345,694.734497 
	C499.691223,695.932617 499.918060,697.558777 498.283844,699.173218 
	C495.235046,702.185120 492.334137,705.540833 488.767151,707.798035 
	C477.737091,714.777771 459.425720,713.256531 449.292175,704.972961 
	C438.335938,696.016968 434.530243,680.858887 439.745026,666.947205 
	C444.344025,654.678284 456.823944,646.776611 471.354279,646.860901 
	C480.102173,646.911682 488.232605,648.763794 494.726990,655.053833 
	C496.672821,656.938477 498.154083,659.302734 500.145813,661.823975 
	C494.978943,665.220703 490.454895,668.194885 486.002106,671.122192 
	C476.184418,662.142456 467.725922,660.971680 461.407440,667.516479 
	C455.327484,673.814209 455.540131,686.039978 461.834137,692.049194 
	C468.243713,698.168762 476.707031,696.713989 485.994141,687.735596 
	C489.569214,689.978333 493.204468,692.258850 497.122345,694.734497 
z"/>
<path fill="#1C2C42" opacity="1.000000" stroke="none" 
	d="
M604.304260,686.346069 
	C601.296204,675.355469 605.180908,666.354370 613.678589,663.902527 
	C621.457458,661.658020 628.947876,665.310425 631.944641,672.809143 
	C635.083923,680.664429 631.856079,690.342285 624.859375,694.052490 
	C617.824280,697.783142 610.137939,695.575562 605.418274,688.455322 
	C605.052795,687.903992 604.776428,687.293762 604.304260,686.346069 
z"/>
<path fill="#1C2C42" opacity="1.000000" stroke="none" 
	d="
M318.764038,695.762146 
	C310.624603,692.483093 307.198151,687.017151 307.649323,678.556824 
	C308.021698,671.573975 312.088043,665.689941 317.876892,664.063599 
	C323.596069,662.456787 328.868347,663.348694 332.899017,667.972778 
	C337.865265,673.670227 338.440338,680.328735 335.741791,687.116943 
	C333.551361,692.626892 329.325653,695.899292 323.138000,696.054138 
	C321.814362,696.087341 320.486115,695.935303 318.764038,695.762146 
z"/>
<path fill="#1C2C42" opacity="1.000000" stroke="none" 
	d="
M527.710693,671.024536 
	C532.924377,663.335754 541.028198,661.144531 548.133179,665.196228 
	C555.112610,669.176392 557.646057,680.009338 553.519775,688.229492 
	C550.148010,694.946533 542.084595,697.775513 534.789490,694.800964 
	C526.678833,691.493774 523.568604,681.438110 527.710693,671.024536 
z"/>
<path fill="#1C2C42" opacity="1.000000" stroke="none" 
	d="
M692.077820,662.633118 
	C702.802673,660.695007 708.048035,664.101929 709.756775,674.145264 
	C701.228516,674.145264 692.772095,674.145264 683.966309,674.145264 
	C684.700806,668.853271 686.562439,664.732422 692.077820,662.633118 
z"/>
</svg>