<svg xmlns="http://www.w3.org/2000/svg" width="1024" height="1024" viewBox="0 0 1024 1024">
<g>
<path d="M 246.99 804.25 C246.99,804.66 245.48,805.00 243.62,805.00 C240.30,805.00 240.22,804.89 238.62,798.54 C236.74,791.05 236.47,774.67 238.10,766.80 C240.00,757.61 243.92,744.64 248.98,730.84 C280.39,645.19 307.10,595.54 338.47,564.50 C349.99,553.10 358.02,546.72 367.54,541.39 L 373.10 538.28 L 373.31 530.27 C373.50,522.81 373.88,521.52 378.71,511.80 C384.33,500.49 392.74,490.30 402.12,483.41 L 407.15 479.72 L 402.70 475.11 C388.59,460.50 381.35,441.93 379.06,414.50 C378.15,403.65 377.53,400.28 376.29,399.50 C366.02,393.08 361.62,383.52 360.37,364.93 C359.49,351.95 360.47,345.08 363.94,339.92 L 366.75 335.74 L 364.45 330.06 C359.03,316.74 357.60,308.58 357.58,291.00 C357.56,276.88 357.89,273.20 359.90,265.50 C363.83,250.40 370.31,239.65 383.40,226.58 C396.75,213.24 409.74,204.28 429.00,195.11 C441.09,189.36 450.96,185.96 466.50,182.22 C476.72,179.76 479.13,179.57 500.50,179.54 C521.70,179.50 524.16,179.69 532.00,181.87 C550.55,187.04 568.93,197.98 578.01,209.26 C581.02,213.00 583.88,215.38 586.68,216.48 C596.61,220.36 611.22,232.09 618.51,242.02 C623.17,248.36 629.40,261.19 631.85,269.50 C640.15,297.58 638.41,331.85 627.27,359.78 L 624.76 366.07 L 627.01 371.28 C631.87,382.57 630.53,398.70 623.86,409.17 C617.28,419.52 608.37,425.29 595.65,427.43 C588.75,428.59 588.65,428.65 587.31,432.55 C586.57,434.72 584.09,440.44 581.81,445.25 C579.53,450.06 577.86,454.14 578.08,454.31 C578.31,454.48 584.60,456.25 592.07,458.24 C615.59,464.51 631.04,472.55 637.97,482.12 C639.57,484.32 642.10,489.35 643.61,493.29 C645.87,499.21 647.79,501.97 654.63,509.20 C663.69,518.75 665.42,521.45 666.99,528.45 C667.79,532.01 667.70,534.39 666.62,538.52 L 665.21 543.93 L 669.85 546.62 C678.11,551.40 692.57,562.77 698.38,569.05 C710.74,582.39 721.15,598.17 730.69,618.00 C751.20,660.66 770.39,736.45 771.72,780.14 C772.02,789.84 771.96,799.41 771.59,801.39 C770.98,804.64 770.59,805.00 767.70,805.00 L 764.50 805.00 L 764.45 787.25 C764.39,768.22 763.03,756.37 757.94,730.70 C746.55,673.28 729.28,625.61 708.24,593.50 C696.21,575.14 672.57,554.36 655.37,547.04 L 650.25 544.86 L 637.37 551.31 C614.53,562.76 594.75,570.07 550.10,583.56 L 530.70 589.42 L 528.80 593.96 C527.76,596.46 525.81,600.97 524.48,604.00 C523.15,607.03 517.04,621.42 510.91,636.00 C496.20,670.94 485.79,695.22 482.60,702.00 C481.18,705.03 480.02,708.06 480.01,708.75 C480.00,709.66 482.43,710.00 488.86,710.00 L 497.73 710.00 L 502.47 715.07 L 507.21 720.14 L 506.77 729.03 C506.53,733.91 506.60,738.35 506.93,738.88 C507.25,739.41 512.24,740.36 518.01,741.00 C529.47,742.25 541.27,744.30 550.30,746.60 C555.90,748.03 556.48,747.98 568.12,745.05 C583.80,741.10 603.18,738.35 625.50,736.90 C635.40,736.25 643.63,735.62 643.78,735.50 C643.93,735.38 641.29,723.28 637.92,708.63 C631.49,680.72 631.38,679.00 636.06,679.00 C638.64,679.00 638.97,679.82 642.04,693.89 C643.56,700.83 646.25,713.07 648.02,721.10 L 651.24 735.70 L 666.09 736.37 C674.27,736.74 681.62,737.30 682.44,737.61 C683.26,737.93 684.22,739.12 684.58,740.27 C685.36,742.71 682.43,745.39 680.03,744.43 C676.77,743.12 640.89,742.78 626.00,743.92 C607.65,745.32 582.50,748.51 575.57,750.31 L 570.64 751.60 L 575.22 754.28 C588.36,761.98 597.03,780.59 595.32,797.40 C594.66,803.80 593.90,804.96 590.31,804.98 C587.27,805.01 587.08,804.33 588.16,797.50 C590.64,781.89 582.57,765.35 569.57,759.40 C562.78,756.30 543.32,751.63 528.22,749.49 C495.09,744.78 477.50,750.83 452.38,775.57 C438.54,789.21 437.05,791.93 441.40,795.67 C445.02,798.78 449.58,798.80 450.36,795.71 C453.16,784.54 483.23,755.00 491.79,755.00 C493.80,755.00 495.45,757.46 494.49,759.02 C494.21,759.48 490.49,762.30 486.24,765.28 C471.77,775.44 457.00,793.10 457.00,800.24 L 457.00 804.00 L 448.49 804.00 C440.18,804.00 439.88,803.91 436.24,800.58 C432.98,797.60 432.50,796.57 432.50,792.66 C432.50,789.18 433.25,787.10 435.82,783.45 L 439.15 778.73 L 440.21 718.50 L 444.31 714.25 L 448.42 710.00 L 457.71 710.00 C462.82,710.00 467.00,709.72 467.00,709.37 C467.00,709.03 465.68,704.19 464.07,698.62 C462.46,693.06 459.95,684.00 458.48,678.50 C457.01,673.00 455.20,666.47 454.44,664.00 C452.26,656.85 435.09,592.01 434.40,588.30 C433.90,585.64 432.81,584.41 429.13,582.32 C409.04,570.93 395.77,561.74 383.91,551.02 L 376.32 544.16 L 372.17 546.51 C355.13,556.20 335.89,575.13 319.87,598.00 C309.23,613.19 290.85,647.21 281.40,669.23 C260.94,716.88 249.38,748.20 245.51,766.50 C243.61,775.49 243.61,790.95 245.50,798.00 C246.31,801.03 246.98,803.84 246.99,804.25 ZM 467.89 497.04 C488.34,499.15 513.69,494.68 531.28,485.88 C553.17,474.93 572.53,453.83 579.45,433.38 L 581.77 426.50 L 578.70 425.43 C574.88,424.10 573.06,421.54 574.74,419.86 C575.66,418.94 577.82,418.96 584.33,419.97 C592.16,421.19 593.19,421.14 599.75,419.15 C620.80,412.75 629.72,387.92 617.59,369.49 C612.57,361.86 607.25,358.64 598.88,358.16 C589.57,357.64 586.00,358.46 580.11,362.52 C574.90,366.10 572.52,366.21 571.47,362.91 C570.78,360.73 569.80,360.66 553.80,361.64 L 543.29 362.29 L 541.63 372.39 C538.21,393.28 531.45,400.25 511.28,403.67 C494.57,406.50 477.88,403.05 468.53,394.82 C463.15,390.08 460.16,382.82 459.03,371.70 C458.60,367.42 457.93,363.60 457.55,363.22 C456.55,362.22 442.69,361.78 441.40,362.71 C440.80,363.14 440.02,366.42 439.66,370.00 L 439.02 376.50 L 441.29 372.50 C443.82,368.03 447.44,366.65 448.43,369.77 C449.29,372.48 446.70,379.17 440.90,389.24 C437.18,395.70 435.95,398.80 436.19,401.14 C436.64,405.74 440.72,408.38 448.31,409.00 C453.40,409.41 454.55,409.84 454.85,411.43 C455.78,416.31 446.71,417.47 438.31,413.56 C432.20,410.72 428.55,405.02 429.21,399.36 C429.42,397.51 429.58,396.00 429.55,396.00 C429.52,396.01 427.33,397.11 424.69,398.45 C416.85,402.43 406.09,404.36 395.34,403.72 L 386.00 403.16 L 386.01 409.33 C386.01,412.72 386.67,419.77 387.46,425.00 C390.58,445.40 397.13,459.24 409.47,471.50 C424.45,486.38 442.98,494.48 467.89,497.04 ZM 472.61 701.26 C472.90,702.23 473.49,702.82 473.91,702.56 C474.69,702.07 480.40,689.19 491.00,664.00 C494.36,656.03 498.38,646.58 499.95,643.00 C507.01,626.91 520.00,595.30 520.00,594.21 C520.00,594.13 520.00,594.06 520.00,593.99 C520.01,593.65 520.01,593.41 519.89,593.27 C519.57,592.90 518.38,593.28 514.04,594.67 C513.71,594.77 513.36,594.89 512.99,595.00 C508.26,596.51 506.38,596.73 505.36,595.88 C503.46,594.30 503.67,591.25 505.75,590.15 C507.56,589.20 524.50,583.82 555.50,574.35 C598.09,561.34 613.57,555.38 642.19,540.99 L 650.87 536.62 L 654.47 538.56 C658.86,540.92 659.96,539.84 659.98,533.21 C660.01,526.99 656.85,521.56 647.92,512.50 C641.72,506.21 639.51,503.14 637.56,498.14 C633.28,487.24 630.55,483.52 623.25,478.68 C613.11,471.96 599.11,466.68 580.19,462.45 L 572.87 460.81 L 564.69 469.20 C560.18,473.81 554.38,479.14 551.78,481.04 C547.46,484.21 547.06,484.85 547.03,488.74 C547.00,492.65 547.32,493.18 551.25,495.62 C553.59,497.08 561.29,502.14 568.37,506.86 L 581.24 515.45 L 589.78 510.97 C598.68,506.31 604.00,502.15 604.00,499.85 C604.00,499.11 600.85,495.55 597.00,491.93 C589.77,485.14 588.55,482.60 592.02,481.50 C594.67,480.65 599.51,483.70 605.24,489.83 C610.54,495.49 611.72,499.35 609.66,504.26 C607.71,508.94 604.71,511.03 582.08,523.53 C571.40,529.42 558.58,536.72 553.58,539.75 C534.84,551.10 502.55,573.98 487.03,586.89 C483.42,589.90 479.91,592.00 478.50,592.00 C476.72,592.00 473.98,589.53 467.72,582.25 C449.76,561.39 432.12,536.48 429.78,528.65 C428.64,524.85 428.68,524.76 433.06,520.60 C435.50,518.29 441.21,513.34 445.75,509.61 C450.29,505.87 453.79,502.47 453.52,502.04 C453.26,501.61 451.21,500.97 448.97,500.61 C440.74,499.30 424.32,492.44 414.90,486.39 C412.42,484.79 412.15,484.83 408.81,487.11 C394.05,497.19 381.34,515.93 380.27,529.17 C379.78,535.37 379.86,535.64 383.71,540.51 C392.34,551.42 418.27,569.06 444.75,582.05 C453.69,586.43 461.00,590.42 461.00,590.93 C461.00,593.16 459.64,595.00 457.99,595.00 C457.00,595.00 453.22,593.67 449.59,592.04 C443.86,589.47 443.00,589.31 443.00,590.79 C443.01,593.43 466.83,682.32 472.61,701.26 ZM 455.00 355.79 C458.20,357.04 459.00,356.52 459.01,353.19 C459.01,351.71 459.50,348.74 460.10,346.58 C463.44,334.54 474.61,330.02 501.00,330.02 C529.45,330.02 539.70,334.81 541.75,349.10 L 542.52 354.50 L 551.43 354.79 C556.33,354.95 560.96,354.85 561.72,354.55 C562.70,354.18 561.66,352.31 558.11,348.04 C551.96,340.64 547.54,331.55 545.95,323.00 C545.29,319.42 544.61,315.99 544.45,315.36 C544.23,314.53 542.28,314.64 537.32,315.76 C533.08,316.72 525.76,317.30 518.00,317.28 C502.55,317.25 490.79,314.44 475.53,307.15 C463.23,301.28 455.79,296.34 446.85,288.12 C443.19,284.75 439.92,282.00 439.60,282.00 C439.27,282.00 439.00,283.27 439.00,284.83 C439.00,288.24 442.93,294.37 450.43,302.66 C453.49,306.05 456.00,309.74 456.00,310.87 C456.00,317.38 441.68,316.06 426.50,308.16 C418.76,304.14 405.10,291.80 401.00,285.12 C399.62,282.89 398.05,281.19 397.50,281.34 C395.84,281.81 388.10,298.09 386.49,304.50 C385.66,307.80 384.69,314.89 384.34,320.25 L 383.70 330.00 L 398.60 330.02 C428.06,330.05 438.12,335.05 439.71,350.47 L 440.27 355.90 L 446.38 355.36 C449.75,355.06 453.62,355.25 455.00,355.79 ZM 487.50 396.64 C494.06,398.36 510.79,397.73 517.99,395.49 C525.60,393.12 531.23,387.36 533.64,379.47 C536.28,370.84 536.30,348.64 533.67,344.61 C529.38,338.06 513.38,335.07 491.94,336.82 C476.64,338.06 470.83,340.24 467.55,345.96 C465.86,348.92 465.57,351.28 465.58,361.96 C465.60,385.19 469.91,392.01 487.50,396.64 ZM 276.00 804.55 C276.00,804.80 274.23,805.00 272.07,805.00 C267.61,805.00 265.81,803.10 261.56,793.93 C252.83,775.08 261.83,755.07 286.09,739.37 C306.70,726.04 330.19,723.24 344.12,732.46 C346.91,734.31 348.16,734.69 348.44,733.78 C348.66,733.08 349.11,726.88 349.44,720.00 C351.02,687.12 353.23,655.27 354.08,653.18 C354.74,651.55 355.68,650.96 357.26,651.18 C359.24,651.46 359.53,652.17 359.80,657.21 C359.96,660.35 359.18,678.44 358.05,697.40 C356.92,716.37 356.00,734.79 356.00,738.34 L 356.00 744.80 L 363.34 751.65 C367.38,755.42 374.73,760.87 379.66,763.76 C390.52,770.12 392.46,771.85 394.00,776.49 C395.04,779.65 394.90,780.62 392.84,784.73 C389.60,791.19 384.99,793.44 374.52,793.69 C366.62,793.87 366.52,793.90 365.79,796.74 C364.55,801.51 360.72,804.28 354.76,804.72 C348.03,805.22 343.67,802.68 341.02,796.74 L 339.14 792.50 L 339.07 798.75 L 339.00 805.00 L 336.00 805.00 C333.09,805.00 333.00,804.86 333.00,800.22 C333.00,797.59 331.63,790.28 329.96,783.97 C322.45,755.69 322.19,754.51 323.14,752.75 C326.82,745.85 334.79,757.84 342.61,782.08 C344.56,788.09 347.28,794.36 348.66,796.01 C351.92,799.88 356.25,800.08 358.62,796.46 C363.06,789.69 355.18,756.85 345.88,743.33 C343.61,740.03 341.22,738.08 337.23,736.25 C332.22,733.95 330.88,733.77 322.61,734.27 C306.09,735.27 290.22,742.73 277.48,755.47 C268.43,764.53 265.50,770.32 265.58,779.00 C265.65,786.07 267.71,791.81 272.97,799.61 C274.64,802.08 276.00,804.30 276.00,804.55 ZM 387.25 396.03 C390.10,397.25 411.32,396.56 416.12,395.09 C425.48,392.21 429.65,386.37 432.55,372.04 C434.53,362.26 434.04,349.90 431.46,344.93 C430.45,342.97 428.25,341.11 425.48,339.89 C419.75,337.35 401.58,335.52 391.52,336.47 L 383.72 337.20 L 384.36 344.75 C384.71,348.90 385.00,361.92 385.00,373.68 C385.00,394.90 385.02,395.07 387.25,396.03 ZM 474.32 529.78 L 484.65 539.94 L 512.57 524.48 L 540.50 509.03 L 540.14 499.76 C539.94,494.67 539.68,490.38 539.55,490.24 C539.42,490.10 535.98,491.52 531.91,493.39 C516.20,500.61 498.96,503.99 477.75,504.00 L 464.00 504.00 L 464.00 519.62 ZM 500.83 559.75 C502.70,562.09 504.60,564.00 505.04,564.00 C505.49,564.00 507.79,562.53 510.17,560.73 C525.61,549.06 547.77,534.54 563.75,525.61 C569.39,522.46 574.00,519.58 573.99,519.19 C573.99,518.48 550.31,502.72 548.50,502.22 C547.90,502.06 547.64,503.91 547.84,506.86 C548.15,511.43 547.95,511.93 544.84,514.24 C543.00,515.61 530.47,522.70 517.00,530.01 C503.52,537.31 491.94,543.73 491.25,544.27 C489.97,545.26 492.60,549.51 500.83,559.75 ZM 447.00 749.50 C447.00,760.22 447.38,769.00 447.84,769.00 C448.31,769.00 451.27,766.75 454.41,763.99 C466.80,753.15 479.05,746.38 492.01,743.20 L 499.50 741.36 L 499.80 735.68 L 500.10 730.00 L 447.00 730.00 ZM 457.83 558.78 C459.74,561.14 461.60,562.94 461.97,562.78 C462.33,562.63 466.37,558.25 470.92,553.06 L 479.21 543.63 L 467.99 533.06 L 456.78 522.50 L 457.14 516.25 C457.34,512.81 457.26,510.00 456.96,510.00 C456.25,510.00 437.00,526.02 437.00,526.62 C437.00,529.01 450.06,549.18 457.83,558.78 ZM 472.25 576.37 C475.69,580.56 479.05,583.78 479.73,583.53 C480.40,583.28 485.00,579.84 489.96,575.87 C495.61,571.34 498.66,568.26 498.15,567.58 C497.70,566.99 494.25,562.50 490.47,557.60 L 483.61 548.71 L 481.05 551.73 C479.65,553.39 475.69,557.90 472.25,561.76 L 466.00 568.77 ZM 414.15 376.92 C410.96,378.63 408.39,378.20 405.10,375.43 C401.30,372.23 399.61,366.39 400.29,358.83 C400.90,352.03 403.34,347.52 407.28,345.88 C411.70,344.05 415.10,345.70 417.75,350.96 C421.87,359.13 419.82,373.88 414.15,376.92 ZM 494.78 376.44 C487.74,381.37 481.00,374.06 481.00,361.51 C481.00,354.03 482.73,349.00 486.12,346.63 C489.73,344.10 493.47,344.58 496.30,347.94 C502.68,355.53 501.83,371.50 494.78,376.44 ZM 374.84 390.25 C375.65,391.21 376.69,392.00 377.15,392.00 C377.62,392.00 378.00,383.08 378.00,372.18 L 378.00 352.36 L 374.79 348.18 C373.02,345.88 370.98,344.00 370.26,344.00 C368.05,344.00 367.00,348.70 367.00,358.61 C367.00,373.31 369.67,384.08 374.84,390.25 ZM 370.26 786.88 C372.04,787.40 374.50,787.86 375.73,787.91 C379.46,788.06 385.64,785.04 387.07,782.37 C389.16,778.46 386.74,775.36 377.43,770.01 C372.99,767.46 367.69,764.10 365.65,762.55 C363.61,760.99 361.77,759.90 361.56,760.11 C361.35,760.32 362.25,765.00 363.56,770.50 C364.87,776.00 366.19,781.73 366.49,783.22 C366.88,785.23 367.88,786.20 370.26,786.88 ZM 484.06 796.72 C477.96,804.36 477.24,804.94 473.75,804.97 C471.69,804.99 470.00,804.72 470.00,804.38 C470.00,804.03 471.97,801.00 474.38,797.63 C480.10,789.63 495.62,774.76 504.63,768.65 C510.87,764.42 512.04,763.95 513.94,764.97 C517.23,766.73 516.09,768.99 509.69,773.37 C499.49,780.36 490.80,788.28 484.06,796.72 ZM 319.00 804.67 C319.00,804.85 317.40,805.00 315.44,805.00 C312.11,805.00 311.74,804.67 309.54,799.68 C305.74,791.10 297.90,766.83 297.69,763.01 C297.52,759.89 297.80,759.47 300.19,759.19 C302.81,758.89 302.98,759.21 306.90,771.69 C309.12,778.74 312.75,788.96 314.96,794.42 C317.18,799.87 319.00,804.48 319.00,804.67 ZM 448.00 721.65 C448.00,722.75 452.72,723.00 472.94,723.00 C487.86,723.00 498.12,722.61 498.48,722.04 C498.80,721.51 498.16,720.16 497.04,719.04 C495.11,717.11 493.80,717.00 473.33,717.00 C454.57,717.00 451.41,717.22 449.83,718.65 C448.82,719.57 448.00,720.92 448.00,721.65 ZM 514.27 797.43 C507.31,803.97 505.73,805.00 502.61,805.00 C500.62,805.00 499.00,804.53 499.00,803.96 C499.00,802.16 516.79,785.31 523.22,781.01 C529.85,776.58 533.31,776.15 533.81,779.67 C534.05,781.36 532.79,782.75 528.22,785.85 C524.97,788.06 518.69,793.27 514.27,797.43 ZM 296.83 804.25 C297.01,804.66 295.39,805.00 293.23,805.00 L 289.29 805.00 L 285.26 796.25 C279.74,784.28 276.64,775.38 277.35,773.54 C277.67,772.69 279.00,772.00 280.30,772.00 C282.34,772.00 283.09,773.16 285.96,780.75 C287.78,785.56 290.89,792.65 292.88,796.50 C294.86,800.35 296.64,803.84 296.83,804.25 ZM 474.50 452.02 C474.50,455.37 471.99,455.44 464.53,452.29 C460.39,450.54 455.80,449.58 449.54,449.14 C441.95,448.60 440.47,448.22 440.18,446.70 C439.25,441.87 446.20,440.70 459.32,443.48 C468.58,445.44 474.50,448.77 474.50,452.02 ZM 410.80 523.80 C410.14,524.46 408.88,525.00 408.00,525.00 C406.08,525.00 404.00,523.09 404.00,521.34 C404.00,517.62 408.57,508.76 413.12,503.65 C418.45,497.68 421.19,496.74 423.35,500.17 C424.19,501.52 423.58,502.73 420.27,506.32 C415.81,511.16 412.00,517.81 412.00,520.76 C412.00,521.77 411.46,523.14 410.80,523.80 ZM 555.49 804.01 C555.20,804.49 549.09,804.87 541.92,804.86 C526.98,804.85 526.74,804.48 537.67,798.37 L 544.04 794.80 L 547.91 798.30 C550.04,800.22 552.74,802.10 553.90,802.47 C555.07,802.84 555.79,803.53 555.49,804.01 Z" fill="rgb(3,4,5)"/>
<path d="M 0.00 0.00 L 1024.00 0.00 L 782.25 0.12 C578.39,0.23 542.77,0.45 555.00,1.53 C662.51,11.01 758.12,50.49 842.00,120.02 C857.89,133.20 889.71,164.92 902.66,180.50 C965.17,255.73 1002.87,338.17 1017.90,432.50 C1020.50,448.79 1022.98,470.85 1022.99,477.75 C1023.00,480.64 1023.22,483.00 1023.50,483.00 C1023.78,483.00 1024.00,374.33 1024.00,241.50 L 1024.00 1024.00 L 0.00 1024.00 ZM 246.99 804.25 C246.99,804.13 246.93,803.83 246.84,803.39 L 247.24 805.00 L 268.14 805.00 L 266.26 802.37 C267.96,804.42 269.61,805.00 272.07,805.00 C274.23,805.00 276.00,804.80 276.00,804.55 C276.00,804.43 275.70,803.89 275.22,803.09 L 276.47 805.00 L 282.07 805.00 C285.15,805.00 287.95,804.72 288.29,804.38 C288.63,804.04 287.64,801.23 286.09,798.13 C284.37,794.70 282.57,790.53 281.06,786.59 C282.23,789.48 283.64,792.73 285.26,796.25 L 289.29 805.00 L 293.23 805.00 C295.39,805.00 297.01,804.66 296.83,804.25 C296.80,804.18 296.73,804.04 296.62,803.84 L 297.22 805.00 L 311.89 805.00 L 309.54 799.68 C311.74,804.67 312.11,805.00 315.44,805.00 C317.40,805.00 319.00,804.85 319.00,804.67 C319.00,804.48 317.18,799.87 314.96,794.42 C313.74,791.40 312.08,786.91 310.46,782.32 C314.07,792.48 318.01,802.30 319.25,803.79 C319.96,804.66 322.33,804.99 326.41,804.79 L 332.50 804.50 L 332.81 800.24 C332.99,797.70 331.81,791.02 329.89,783.74 C329.22,781.21 328.61,778.90 328.05,776.79 C328.63,778.96 329.26,781.35 329.96,783.97 C331.63,790.28 333.00,797.59 333.00,800.22 C333.00,804.86 333.09,805.00 336.00,805.00 L 339.00 805.00 L 349.50 804.99 L 347.17 803.57 C349.27,804.57 351.79,804.94 354.76,804.72 C358.03,804.48 360.66,803.54 362.57,801.95 C361.62,802.88 360.57,803.62 359.50,804.06 C358.40,804.51 382.70,804.89 413.50,804.89 L 469.50 804.90 L 470.44 803.49 C470.16,803.97 470.00,804.28 470.00,804.38 C470.00,804.72 471.69,804.99 473.75,804.97 C476.61,804.95 477.62,804.55 481.27,800.17 C479.88,802.03 479.00,803.39 479.00,803.75 C479.00,804.66 481.46,805.00 487.96,805.00 L 496.92 805.00 L 504.15 797.86 C501.11,800.93 499.00,803.34 499.00,803.96 C499.00,804.53 500.62,805.00 502.61,805.00 C505.33,805.00 506.88,804.22 511.83,799.70 C509.54,801.92 508.00,803.62 508.00,804.09 C508.00,804.59 512.44,805.00 517.87,805.00 C525.97,805.00 528.16,804.67 530.12,803.14 C530.23,803.05 530.36,802.95 530.51,802.84 C528.62,804.69 532.09,804.85 541.92,804.86 C549.09,804.87 555.20,804.49 555.49,804.01 C555.78,803.55 555.11,802.88 554.00,802.50 C555.11,802.87 556.00,803.51 556.00,803.93 C556.00,804.37 562.72,804.81 570.93,804.92 C571.59,804.93 572.22,804.94 572.82,804.94 C581.51,805.07 585.00,805.11 586.60,803.40 C587.09,802.87 587.41,802.18 587.64,801.28 C587.31,804.60 587.96,805.00 590.31,804.98 C593.13,804.96 594.21,804.25 594.86,800.83 C594.54,802.62 594.11,803.89 593.60,804.23 C592.99,804.64 631.05,804.98 678.16,804.98 L 763.82 805.00 L 764.48 797.12 L 764.50 805.00 L 767.70 805.00 C770.59,805.00 770.98,804.64 771.59,801.39 C771.96,799.41 772.02,789.84 771.72,780.14 C770.39,736.45 751.20,660.66 730.69,618.00 C721.15,598.17 710.74,582.39 698.38,569.05 C692.57,562.77 678.11,551.40 669.85,546.62 L 665.21 543.93 L 666.62 538.52 C667.70,534.39 667.79,532.01 666.99,528.45 C665.42,521.45 663.69,518.75 654.63,509.20 C647.79,501.97 645.87,499.21 643.61,493.29 C642.10,489.35 639.57,484.32 637.97,482.12 C631.04,472.55 615.59,464.51 592.07,458.24 C584.60,456.25 578.31,454.48 578.08,454.31 C577.86,454.14 579.53,450.06 581.81,445.25 C584.09,440.44 586.57,434.72 587.31,432.55 C588.65,428.65 588.75,428.59 595.65,427.43 C608.37,425.29 617.28,419.52 623.86,409.17 C630.53,398.70 631.87,382.57 627.01,371.28 L 624.76 366.07 L 627.27 359.78 C638.41,331.85 640.15,297.58 631.85,269.50 C629.40,261.19 623.17,248.36 618.51,242.02 C611.22,232.09 596.61,220.36 586.68,216.48 C583.88,215.38 581.02,213.00 578.01,209.26 C568.93,197.98 550.55,187.04 532.00,181.87 C524.16,179.69 521.70,179.50 500.50,179.54 C479.13,179.57 476.72,179.76 466.50,182.22 C450.96,185.96 441.09,189.36 429.00,195.11 C409.74,204.28 396.75,213.24 383.40,226.58 C370.31,239.65 363.83,250.40 359.90,265.50 C357.89,273.20 357.56,276.88 357.58,291.00 C357.60,308.58 359.03,316.74 364.45,330.06 L 366.75 335.74 L 363.94 339.92 C360.47,345.08 359.49,351.95 360.37,364.93 C361.62,383.52 366.02,393.08 376.29,399.50 C377.53,400.28 378.15,403.65 379.06,414.50 C381.35,441.93 388.59,460.50 402.70,475.11 L 407.15 479.72 L 402.12 483.41 C392.74,490.30 384.33,500.49 378.71,511.80 C373.88,521.52 373.50,522.81 373.31,530.27 L 373.10 538.28 L 367.54 541.39 C358.02,546.72 349.99,553.10 338.47,564.50 C307.10,595.54 280.39,645.19 248.98,730.84 C243.92,744.64 240.00,757.61 238.10,766.80 C236.47,774.67 236.74,791.05 238.62,798.54 C240.22,804.89 240.30,805.00 243.62,805.00 C245.48,805.00 246.99,804.66 246.99,804.25 ZM 0.14 780.25 L 0.00 1024.00 L 242.75 1023.82 C374.58,1023.72 480.55,1023.50 480.55,1023.32 C480.55,1023.32 480.53,1023.32 480.50,1023.31 C458.67,1021.89 428.95,1017.78 405.50,1012.94 C285.53,988.18 174.70,917.13 101.40,818.00 C80.40,789.60 66.63,766.88 51.41,735.53 C22.74,676.47 7.69,619.74 1.12,546.00 C1.11,545.85 1.09,545.78 1.08,545.78 C0.61,545.78 0.21,643.12 0.14,780.25 ZM 0.00 0.00 L 0.12 244.75 C0.23,453.14 0.44,487.05 1.53,473.00 C9.35,373.06 43.24,283.48 103.88,202.50 C141.09,152.80 192.07,106.85 246.50,73.93 C314.12,33.04 388.89,8.82 470.00,1.56 C482.34,0.45 448.35,0.24 242.25,0.13 ZM 1024.00 1024.00 L 1023.86 780.75 C1023.78,645.23 1023.39,548.69 1022.93,548.69 C1022.91,548.69 1022.90,548.79 1022.88,549.00 C1016.80,632.85 989.72,715.11 945.07,785.45 C934.61,801.93 916.13,827.49 904.39,841.70 C892.00,856.71 858.11,890.64 842.50,903.65 C771.46,962.89 691.68,1000.14 601.00,1016.43 C584.94,1019.31 567.32,1021.39 542.50,1023.35 C542.48,1023.35 542.47,1023.35 542.47,1023.35 C542.47,1023.53 649.08,1023.74 781.25,1023.83 L 1024.00 1024.00 ZM 374.84 390.25 C369.67,384.08 367.00,373.31 367.00,358.61 C367.00,348.70 368.05,344.00 370.26,344.00 C370.98,344.00 373.02,345.88 374.79,348.18 L 378.00 352.36 L 378.00 372.18 C378.00,383.08 377.62,392.00 377.15,392.00 C376.69,392.00 375.65,391.21 374.84,390.25 ZM 797.52 770.04 C798.36,771.67 799.48,773.00 800.01,773.00 C800.54,773.00 802.16,771.20 803.62,769.00 C805.08,766.80 807.76,764.08 809.58,762.95 C813.50,760.53 813.22,758.92 808.38,755.92 C806.49,754.76 804.28,752.50 803.45,750.90 C801.66,747.45 800.57,747.28 798.24,750.12 C795.56,753.37 790.59,757.99 789.75,758.00 C787.73,758.01 789.39,761.81 792.49,764.29 C794.42,765.82 796.68,768.41 797.52,770.04 ZM 753.32 709.31 C749.04,691.38 743.76,673.04 737.81,656.00 C735.87,650.46 733.94,645.22 731.99,640.24 C740.17,660.61 747.35,683.83 753.32,709.31 ZM 489.74 790.21 C495.45,784.20 502.16,778.54 509.69,773.37 C509.86,773.26 510.02,773.15 510.17,773.04 C501.95,779.02 494.95,784.91 489.74,790.21 ZM 274.24 748.46 C281.84,741.26 291.02,735.60 300.45,731.93 C295.61,733.86 290.77,736.34 286.09,739.37 C281.61,742.27 277.66,745.31 274.24,748.46 ZM 763.73 768.03 C762.88,759.61 761.56,750.37 759.85,740.65 C761.86,751.58 763.06,759.88 763.73,768.03 ZM 595.37 789.33 C594.87,783.29 593.18,777.29 590.57,771.87 C592.69,776.10 594.22,780.63 594.94,785.09 C595.15,786.39 595.29,787.83 595.37,789.33 ZM 511.64 771.98 C515.38,769.18 516.49,767.36 515.25,765.94 C516.52,767.31 515.91,768.97 513.44,770.70 C512.84,771.13 512.23,771.56 511.64,771.98 ZM 709.14 594.88 C705.24,589.09 701.13,583.80 696.73,578.87 C701.15,583.72 705.09,588.69 708.24,593.50 C708.54,593.96 708.84,594.42 709.14,594.88 ZM 679.54 562.56 C671.10,555.74 662.18,549.94 655.37,547.04 C662.72,550.17 671.24,555.75 679.54,562.56 ZM 264.45 799.68 C262.10,795.91 260.42,792.03 259.43,788.12 C259.96,790.06 260.67,792.00 261.56,793.93 C262.66,796.30 263.59,798.18 264.45,799.68 ZM 507.08 794.97 C512.00,790.12 516.39,786.21 520.13,783.32 C516.38,786.32 511.31,790.88 507.08,794.97 ZM 585.98 777.82 C582.78,769.66 576.94,762.78 569.58,759.41 C577.01,762.81 582.82,769.66 585.98,777.82 ZM 244.12 785.92 C244.27,790.31 244.70,794.46 245.42,797.70 C244.68,794.78 244.25,790.53 244.12,785.92 ZM 272.03 798.19 C269.91,794.90 268.39,791.97 267.35,789.10 C268.37,791.86 269.88,794.77 272.03,798.19 ZM 305.14 766.14 C302.93,759.38 302.38,758.96 300.42,759.16 C302.45,758.95 302.96,759.37 305.14,766.14 ZM 518.05 794.01 C521.78,790.74 525.82,787.48 528.22,785.85 C532.17,783.17 533.64,781.77 533.82,780.35 C533.65,781.76 532.19,783.16 528.31,785.80 C525.66,787.60 521.74,790.79 518.05,794.01 ZM 323.67 759.72 C322.52,754.79 322.59,753.88 323.01,753.00 C322.60,753.89 322.57,754.96 323.67,759.72 ZM 544.03 794.79 L 544.04 794.80 L 538.26 798.04 ZM 508.10 766.36 C507.15,766.96 506.02,767.71 504.63,768.65 C503.69,769.28 502.68,770.02 501.62,770.83 C502.69,770.01 503.70,769.27 504.63,768.64 C506.01,767.71 507.15,766.95 508.10,766.36 ZM 277.28 773.78 C277.29,773.70 277.31,773.64 277.33,773.58 L 277.34 773.56 C277.32,773.62 277.30,773.70 277.28,773.78 Z" fill="rgb(59,152,225)"/>
<path d="M 467.89 497.04 C442.98,494.48 424.45,486.38 409.47,471.50 C397.13,459.24 390.58,445.40 387.46,425.00 C386.67,419.77 386.01,412.72 386.01,409.33 L 386.00 403.16 L 395.34 403.72 C406.09,404.36 416.85,402.43 424.69,398.45 C427.33,397.11 429.52,396.01 429.55,396.00 C429.58,396.00 429.42,397.51 429.21,399.36 C428.55,405.02 432.20,410.72 438.31,413.56 C446.71,417.47 455.78,416.31 454.85,411.43 C454.55,409.84 453.40,409.41 448.31,409.00 C440.72,408.38 436.64,405.74 436.19,401.14 C435.95,398.80 437.18,395.70 440.90,389.24 C446.70,379.17 449.29,372.48 448.43,369.77 C447.44,366.65 443.82,368.03 441.29,372.50 L 439.02 376.50 L 439.66 370.00 C440.02,366.42 440.80,363.14 441.40,362.71 C442.69,361.78 456.55,362.22 457.55,363.22 C457.93,363.60 458.60,367.42 459.03,371.70 C460.16,382.82 463.15,390.08 468.53,394.82 C477.88,403.05 494.57,406.50 511.28,403.67 C531.45,400.25 538.21,393.28 541.63,372.39 L 543.29 362.29 L 553.80 361.64 C569.80,360.66 570.78,360.73 571.47,362.91 C572.52,366.21 574.90,366.10 580.11,362.52 C586.00,358.46 589.57,357.64 598.88,358.16 C607.25,358.64 612.57,361.86 617.59,369.49 C629.72,387.92 620.80,412.75 599.75,419.15 C593.19,421.14 592.16,421.19 584.33,419.97 C577.82,418.96 575.66,418.94 574.74,419.86 C573.06,421.54 574.88,424.10 578.70,425.43 L 581.77 426.50 L 579.45 433.38 C572.53,453.83 553.17,474.93 531.28,485.88 C513.69,494.68 488.34,499.15 467.89,497.04 ZM 484.06 796.72 C485.82,794.51 487.72,792.34 489.74,790.21 C494.95,784.91 501.95,779.02 510.17,773.04 C510.70,772.67 511.19,772.32 511.64,771.98 C512.23,771.56 512.84,771.13 513.44,770.70 C515.91,768.97 516.52,767.31 515.25,765.94 C514.95,765.60 514.52,765.28 513.94,764.97 L 513.92 764.96 L 513.88 764.94 C513.87,764.93 513.87,764.93 513.86,764.92 C513.43,764.70 513.03,764.56 512.60,764.52 L 512.60 764.52 C511.59,764.44 510.38,764.94 508.10,766.36 C507.15,766.95 506.01,767.71 504.63,768.64 C503.70,769.27 502.69,770.01 501.62,770.83 C492.48,777.79 479.50,790.46 474.38,797.63 C472.66,800.04 471.15,802.28 470.44,803.49 L 469.50 804.90 L 428.38 804.90 C445.81,804.80 458.00,804.55 458.00,804.25 C458.00,804.13 457.64,804.02 457.00,803.94 L 457.00 800.24 C457.00,793.10 471.77,775.44 486.24,765.28 C490.49,762.30 494.21,759.48 494.49,759.02 C495.45,757.46 493.80,755.00 491.79,755.00 C483.23,755.00 453.16,784.54 450.36,795.71 C449.58,798.80 445.02,798.78 441.40,795.67 C437.05,791.93 438.54,789.21 452.38,775.57 C477.50,750.83 495.09,744.78 528.22,749.49 C543.32,751.63 562.78,756.30 569.57,759.40 L 569.61 759.43 C576.95,762.80 582.79,769.67 585.98,777.82 C588.35,783.95 589.23,790.81 588.16,797.50 C587.92,799.06 587.73,800.29 587.64,801.28 C587.41,802.18 587.09,802.87 586.60,803.40 C585.00,805.11 581.51,805.07 572.82,804.94 C572.22,804.94 571.59,804.93 570.93,804.92 C562.72,804.81 556.00,804.37 556.00,803.93 C556.00,803.51 555.11,802.88 554.00,802.50 L 554.00 802.50 C553.97,802.49 553.94,802.48 553.90,802.47 C552.74,802.10 550.04,800.22 547.91,798.30 L 544.04 794.80 L 544.03 794.79 L 538.26 798.04 L 537.67 798.37 C533.93,800.46 531.50,801.88 530.51,802.84 C530.36,802.95 530.23,803.05 530.12,803.14 C528.16,804.67 525.97,805.00 517.87,805.00 C512.44,805.00 508.00,804.59 508.00,804.09 C508.00,803.62 509.54,801.92 511.83,799.70 C512.56,799.03 513.37,798.27 514.27,797.43 C515.43,796.34 516.72,795.17 518.05,794.01 C521.74,790.79 525.66,787.60 528.31,785.80 C532.16,783.17 533.63,781.78 533.82,780.38 C533.82,780.37 533.82,780.36 533.82,780.35 C533.85,780.13 533.84,779.90 533.81,779.67 C533.31,776.15 529.85,776.58 523.22,781.01 C522.37,781.58 521.31,782.37 520.13,783.32 L 520.13 783.32 C516.39,786.21 512.00,790.12 507.08,794.97 C506.04,795.97 505.05,796.95 504.15,797.86 L 504.15 797.86 L 496.92 805.00 L 487.96 805.00 C481.46,805.00 479.00,804.66 479.00,803.75 C479.00,803.39 479.88,802.03 481.27,800.17 C482.06,799.22 482.98,798.08 484.06,796.72 ZM 455.00 355.79 C453.62,355.25 449.75,355.06 446.38,355.36 L 440.27 355.90 L 439.71 350.47 C438.12,335.05 428.06,330.05 398.60,330.02 L 383.70 330.00 L 384.34 320.25 C384.69,314.89 385.66,307.80 386.49,304.50 C388.10,298.09 395.84,281.81 397.50,281.34 C398.05,281.19 399.62,282.89 401.00,285.12 C405.10,291.80 418.76,304.14 426.50,308.16 C441.68,316.06 456.00,317.38 456.00,310.87 C456.00,309.74 453.49,306.05 450.43,302.66 C442.93,294.37 439.00,288.24 439.00,284.83 C439.00,283.27 439.27,282.00 439.60,282.00 C439.92,282.00 443.19,284.75 446.85,288.12 C455.79,296.34 463.23,301.28 475.53,307.15 C490.79,314.44 502.55,317.25 518.00,317.28 C525.76,317.30 533.08,316.72 537.32,315.76 C542.28,314.64 544.23,314.53 544.45,315.36 C544.61,315.99 545.29,319.42 545.95,323.00 C547.54,331.55 551.96,340.64 558.11,348.04 C561.66,352.31 562.70,354.18 561.72,354.55 C560.96,354.85 556.33,354.95 551.43,354.79 L 542.52 354.50 L 541.75 349.10 C539.70,334.81 529.45,330.02 501.00,330.02 C474.61,330.02 463.44,334.54 460.10,346.58 C459.50,348.74 459.01,351.71 459.01,353.19 C459.00,356.52 458.20,357.04 455.00,355.79 ZM 272.03 798.19 C272.03,798.19 272.03,798.18 272.02,798.17 C269.88,794.75 268.37,791.86 267.35,789.10 C266.15,785.78 265.62,782.56 265.58,779.00 C265.50,770.32 268.43,764.53 277.48,755.47 C290.22,742.73 306.09,735.27 322.61,734.27 C330.88,733.77 332.22,733.95 337.23,736.25 C341.22,738.08 343.61,740.03 345.88,743.33 C355.18,756.85 363.06,789.69 358.62,796.46 C356.25,800.08 351.92,799.88 348.66,796.01 C347.28,794.36 344.56,788.09 342.61,782.08 C334.79,757.84 326.82,745.85 323.14,752.75 C323.09,752.83 323.05,752.92 323.01,753.00 C322.59,753.88 322.52,754.79 323.67,759.72 C324.46,763.11 325.83,768.38 328.05,776.79 L 328.05 776.79 C328.61,778.90 329.22,781.21 329.89,783.74 C331.81,791.02 332.99,797.70 332.81,800.24 L 332.50 804.50 L 326.41 804.79 C322.33,804.99 319.96,804.66 319.25,803.79 C318.01,802.30 314.07,792.48 310.46,782.32 C309.16,778.61 307.89,774.83 306.90,771.69 C306.21,769.48 305.63,767.65 305.14,766.14 C302.96,759.37 302.45,758.96 300.43,759.16 L 300.42 759.16 C300.35,759.17 300.27,759.18 300.19,759.19 C297.80,759.47 297.52,759.89 297.69,763.01 C297.90,766.83 305.74,791.10 309.54,799.68 L 311.89 805.00 L 297.22 805.00 L 296.62 803.84 C296.07,802.73 294.55,799.74 292.88,796.50 C290.89,792.65 287.78,785.56 285.96,780.75 C283.09,773.16 282.34,772.00 280.30,772.00 C279.00,772.00 277.67,772.69 277.35,773.54 C277.34,773.54 277.34,773.55 277.34,773.56 L 277.33 773.58 C277.31,773.64 277.29,773.70 277.28,773.78 C277.00,775.36 278.40,780.03 281.06,786.59 C282.57,790.53 284.37,794.70 286.09,798.13 C287.64,801.23 288.63,804.04 288.29,804.38 C287.95,804.72 285.15,805.00 282.07,805.00 L 276.47 805.00 L 275.22 803.09 C274.66,802.18 273.86,800.93 272.97,799.61 C272.65,799.13 272.34,798.66 272.03,798.19 ZM 487.50 396.64 C469.91,392.01 465.60,385.19 465.58,361.96 C465.57,351.28 465.86,348.92 467.55,345.96 C470.83,340.24 476.64,338.06 491.94,336.82 C513.38,335.07 529.38,338.06 533.67,344.61 C536.30,348.64 536.28,370.84 533.64,379.47 C531.23,387.36 525.60,393.12 517.99,395.49 C510.79,397.73 494.06,398.36 487.50,396.64 ZM 387.25 396.03 C385.02,395.07 385.00,394.90 385.00,373.68 C385.00,361.92 384.71,348.90 384.36,344.75 L 383.72 337.20 L 391.52 336.47 C401.58,335.52 419.75,337.35 425.48,339.89 C428.25,341.11 430.45,342.97 431.46,344.93 C434.04,349.90 434.53,362.26 432.55,372.04 C429.65,386.37 425.48,392.21 416.12,395.09 C411.32,396.56 390.10,397.25 387.25,396.03 ZM 474.32 529.78 L 464.00 519.62 L 464.00 504.00 L 477.75 504.00 C498.96,503.99 516.20,500.61 531.91,493.39 C535.98,491.52 539.42,490.10 539.55,490.24 C539.68,490.38 539.94,494.67 540.14,499.76 L 540.50 509.03 L 512.57 524.48 L 484.65 539.94 ZM 500.83 559.75 C492.60,549.51 489.97,545.26 491.25,544.27 C491.94,543.73 503.52,537.31 517.00,530.01 C530.47,522.70 543.00,515.61 544.84,514.24 C547.95,511.93 548.15,511.43 547.84,506.86 C547.64,503.91 547.90,502.06 548.50,502.22 C550.31,502.72 573.99,518.48 573.99,519.19 C574.00,519.58 569.39,522.46 563.75,525.61 C547.77,534.54 525.61,549.06 510.17,560.73 C507.79,562.53 505.49,564.00 505.04,564.00 C504.60,564.00 502.70,562.09 500.83,559.75 ZM 457.83 558.78 C450.06,549.18 437.00,529.01 437.00,526.62 C437.00,526.02 456.25,510.00 456.96,510.00 C457.26,510.00 457.34,512.81 457.14,516.25 L 456.78 522.50 L 467.99 533.06 L 479.21 543.63 L 470.92 553.06 C466.37,558.25 462.33,562.63 461.97,562.78 C461.60,562.94 459.74,561.14 457.83,558.78 ZM 472.25 576.37 L 466.00 568.77 L 472.25 561.76 C475.69,557.90 479.65,553.39 481.05,551.73 L 483.61 548.71 L 490.47 557.60 C494.25,562.50 497.70,566.99 498.15,567.58 C498.66,568.26 495.61,571.34 489.96,575.87 C485.00,579.84 480.40,583.28 479.73,583.53 C479.05,583.78 475.69,580.56 472.25,576.37 ZM 414.15 376.92 C419.82,373.88 421.87,359.13 417.75,350.96 C415.10,345.70 411.70,344.05 407.28,345.88 C403.34,347.52 400.90,352.03 400.29,358.83 C399.61,366.39 401.30,372.23 405.10,375.43 C408.39,378.20 410.96,378.63 414.15,376.92 ZM 494.78 376.44 C501.83,371.50 502.68,355.53 496.30,347.94 C493.47,344.58 489.73,344.10 486.12,346.63 C482.73,349.00 481.00,354.03 481.00,361.51 C481.00,374.06 487.74,381.37 494.78,376.44 ZM 370.26 786.88 C367.88,786.20 366.88,785.23 366.49,783.22 C366.19,781.73 364.87,776.00 363.56,770.50 C362.25,765.00 361.35,760.32 361.56,760.11 C361.77,759.90 363.61,760.99 365.65,762.55 C367.69,764.10 372.99,767.46 377.43,770.01 C386.74,775.36 389.16,778.46 387.07,782.37 C385.64,785.04 379.46,788.06 375.73,787.91 C374.50,787.86 372.04,787.40 370.26,786.88 ZM 797.52 770.04 C796.68,768.41 794.42,765.82 792.49,764.29 C789.39,761.81 787.73,758.01 789.75,758.00 C790.59,757.99 795.56,753.37 798.24,750.12 C800.57,747.28 801.66,747.45 803.45,750.90 C804.28,752.50 806.49,754.76 808.38,755.92 C813.22,758.92 813.50,760.53 809.58,762.95 C807.76,764.08 805.08,766.80 803.62,769.00 C802.16,771.20 800.54,773.00 800.01,773.00 C799.48,773.00 798.36,771.67 797.52,770.04 ZM 474.50 452.02 C474.50,448.77 468.58,445.44 459.32,443.48 C446.20,440.70 439.25,441.87 440.18,446.70 C440.47,448.22 441.95,448.60 449.54,449.14 C455.80,449.58 460.39,450.54 464.53,452.29 C471.99,455.44 474.50,455.37 474.50,452.02 ZM 448.00 721.65 C448.00,720.92 448.82,719.57 449.83,718.65 C451.41,717.22 454.57,717.00 473.33,717.00 C493.80,717.00 495.11,717.11 497.04,719.04 C498.16,720.16 498.80,721.51 498.48,722.04 C498.14,722.58 489.08,722.95 475.62,723.00 C481.32,722.95 485.00,722.57 485.00,722.00 C485.00,721.45 486.24,720.96 487.75,720.90 L 490.50 720.80 L 485.50 719.20 L 488.00 718.98 C490.37,718.77 490.34,718.72 487.50,718.00 C483.08,716.87 462.74,716.87 461.00,718.00 C459.91,718.70 459.86,718.97 460.81,718.98 C461.53,718.99 461.84,719.45 461.50,720.00 C461.16,720.55 461.58,721.00 462.44,721.00 C463.30,721.00 464.00,721.45 464.00,722.00 C464.00,722.59 467.97,722.98 474.04,723.00 C473.68,723.00 473.31,723.00 472.94,723.00 C452.72,723.00 448.00,722.75 448.00,721.65 ZM 0.00 0.00 L 0.14 243.25 C0.20,357.87 0.52,451.66 0.89,473.07 C0.34,460.70 0.20,403.09 0.12,244.75 ZM 782.25 0.12 L 1024.00 0.00 L 783.25 0.13 C671.48,0.19 579.59,0.51 556.47,0.88 C570.51,0.35 628.58,0.20 782.25,0.12 ZM 722.58 44.84 C764.91,63.84 803.98,88.50 842.00,120.02 C804.54,88.97 764.74,63.91 722.58,44.84 ZM 58.66 273.64 C73.27,245.84 90.45,219.33 109.96,194.57 C107.90,197.20 105.87,199.84 103.88,202.50 C86.65,225.51 71.58,249.21 58.66,273.64 ZM 122.92 178.78 C124.58,176.84 126.25,174.91 127.94,173.00 C148.58,149.57 171.56,128.02 196.35,108.68 C169.54,129.72 144.57,153.54 122.92,178.78 ZM 308.11 42.13 C320.67,36.67 333.42,31.72 346.34,27.32 C360.20,22.60 375.00,18.34 390.08,14.70 C361.85,21.57 334.51,30.72 308.11,42.13 ZM 444.74 803.97 L 440.12 804.14 L 436.31 800.65 C439.24,803.33 440.01,803.87 444.74,803.97 ZM 5.68 436.05 C7.36,424.33 9.29,413.70 11.76,402.40 C9.38,413.48 7.35,424.70 5.68,436.05 ZM 1.25 475.60 C1.46,473.25 1.67,470.98 1.88,468.76 C1.76,470.17 1.65,471.58 1.53,473.00 C1.43,474.33 1.33,475.24 1.25,475.60 ZM 420.38 8.26 C429.69,6.56 438.94,5.11 447.99,3.97 C438.70,5.17 429.50,6.60 420.38,8.26 ZM 553.04 1.28 C555.16,1.49 557.27,1.71 559.35,1.93 C557.90,1.79 556.45,1.66 555.00,1.53 C554.01,1.44 553.33,1.36 553.04,1.28 Z" fill="rgb(243,216,203)"/>
<path d="M 753.32 709.31 C754.95,716.27 756.49,723.41 757.94,730.70 C758.64,734.26 759.28,737.56 759.85,740.65 C761.56,750.37 762.88,759.61 763.73,768.03 C764.23,774.16 764.43,780.22 764.45,787.25 L 764.48 797.12 L 763.82 805.00 L 678.16 804.98 C631.05,804.98 592.99,804.64 593.60,804.23 C594.11,803.89 594.54,802.62 594.86,800.83 C595.03,799.90 595.18,798.77 595.32,797.40 C595.59,794.74 595.60,792.03 595.37,789.33 C595.29,787.83 595.15,786.39 594.94,785.09 C594.22,780.63 592.69,776.10 590.57,771.87 C586.98,764.39 581.63,758.04 575.22,754.28 L 570.64 751.60 L 575.57 750.31 C582.50,748.51 607.65,745.32 626.00,743.92 C640.89,742.78 676.77,743.12 680.03,744.43 C682.43,745.39 685.36,742.71 684.58,740.27 C684.22,739.12 683.26,737.93 682.44,737.61 C681.62,737.30 674.27,736.74 666.09,736.37 L 651.24 735.70 L 648.02 721.10 C646.25,713.07 643.56,700.83 642.04,693.89 C638.97,679.82 638.64,679.00 636.06,679.00 C631.38,679.00 631.49,680.72 637.92,708.63 C641.29,723.28 643.93,735.38 643.78,735.50 C643.63,735.62 635.40,736.25 625.50,736.90 C603.18,738.35 583.80,741.10 568.12,745.05 C556.48,747.98 555.90,748.03 550.30,746.60 C541.27,744.30 529.47,742.25 518.01,741.00 C512.24,740.36 507.25,739.41 506.93,738.88 C506.60,738.35 506.53,733.91 506.77,729.03 L 507.21 720.14 L 502.47 715.07 L 497.73 710.00 L 488.86 710.00 C482.43,710.00 480.00,709.66 480.01,708.75 C480.02,708.06 481.18,705.03 482.60,702.00 C485.79,695.22 496.20,670.94 510.91,636.00 C517.04,621.42 523.15,607.03 524.48,604.00 C525.81,600.97 527.76,596.46 528.80,593.96 L 530.70 589.42 L 550.10 583.56 C594.75,570.07 614.53,562.76 637.37,551.31 L 650.25 544.86 L 655.37 547.04 C662.18,549.94 671.10,555.74 679.53,562.55 L 679.54 562.56 C685.57,567.51 691.48,573.10 696.73,578.87 C701.13,583.80 705.24,589.09 709.14,594.88 C717.39,607.71 725.05,622.95 731.99,640.24 C733.94,645.22 735.87,650.46 737.81,656.00 C743.76,673.04 749.04,691.38 753.32,709.31 ZM 274.24 748.46 C261.01,760.66 255.77,774.55 259.43,788.12 C260.42,792.03 262.10,795.91 264.45,799.68 C265.09,800.78 265.68,801.66 266.26,802.37 L 268.14 805.00 L 247.24 805.00 L 246.84 803.39 C246.60,802.25 246.09,800.18 245.50,798.00 C245.47,797.90 245.45,797.80 245.42,797.70 C244.70,794.46 244.27,790.31 244.12,785.93 L 244.12 785.92 C243.94,779.22 244.40,771.75 245.51,766.50 C249.38,748.20 260.94,716.88 281.40,669.23 C290.85,647.21 309.23,613.19 319.87,598.00 C335.89,575.13 355.13,556.20 372.17,546.51 L 376.32 544.16 L 383.91 551.02 C395.77,561.74 409.04,570.93 429.13,582.32 C432.81,584.41 433.90,585.64 434.40,588.30 C435.09,592.01 452.26,656.85 454.44,664.00 C455.20,666.47 457.01,673.00 458.48,678.50 C459.95,684.00 462.46,693.06 464.07,698.62 C465.68,704.19 467.00,709.03 467.00,709.37 C467.00,709.72 462.82,710.00 457.71,710.00 L 448.42 710.00 L 444.31 714.25 L 440.21 718.50 L 439.15 778.73 L 435.82 783.45 C433.25,787.10 432.50,789.18 432.50,792.66 C432.50,796.57 432.98,797.60 436.24,800.58 L 436.31 800.65 L 440.12 804.14 L 444.74 803.97 C445.78,804.00 447.00,804.00 448.49,804.00 L 457.00 804.00 L 457.00 803.94 C457.64,804.02 458.00,804.13 458.00,804.25 C458.00,804.55 445.81,804.80 428.39,804.90 L 428.38 804.90 L 413.50 804.89 C382.70,804.89 358.40,804.51 359.50,804.06 C360.57,803.62 361.62,802.88 362.57,801.95 C364.14,800.64 365.23,798.89 365.79,796.74 C365.96,796.08 366.09,795.58 366.30,795.18 C366.32,795.15 366.33,795.12 366.35,795.09 C367.06,793.88 368.60,793.82 374.52,793.69 L 374.52 793.69 C384.99,793.44 389.60,791.19 392.84,784.73 C394.90,780.62 395.04,779.65 394.00,776.49 C392.46,771.85 390.52,770.12 379.66,763.76 C374.73,760.87 367.38,755.42 363.34,751.65 L 356.00 744.80 L 356.00 738.34 C356.00,734.79 356.92,716.37 358.05,697.40 C359.18,678.44 359.96,660.35 359.80,657.21 C359.53,652.17 359.24,651.46 357.26,651.18 C355.68,650.96 354.74,651.55 354.08,653.18 C353.23,655.27 351.02,687.12 349.44,720.00 C349.11,726.88 348.66,733.08 348.44,733.78 C348.16,734.69 346.91,734.31 344.12,732.46 C333.36,725.34 316.89,725.39 300.45,731.93 L 300.45 731.93 C291.02,735.61 281.84,741.26 274.24,748.46 ZM 472.61 701.26 C466.83,682.32 443.01,593.43 443.00,590.79 C443.00,589.31 443.86,589.47 449.59,592.04 C453.22,593.67 457.00,595.00 457.99,595.00 C459.64,595.00 461.00,593.16 461.00,590.93 C461.00,590.42 453.69,586.43 444.75,582.05 C418.27,569.06 392.34,551.42 383.71,540.51 C379.86,535.64 379.78,535.37 380.27,529.17 C381.34,515.93 394.05,497.19 408.81,487.11 C412.15,484.83 412.42,484.79 414.90,486.39 C424.32,492.44 440.74,499.30 448.97,500.61 C451.21,500.97 453.26,501.61 453.52,502.04 C453.79,502.47 450.29,505.87 445.75,509.61 C441.21,513.34 435.50,518.29 433.06,520.60 C428.68,524.76 428.64,524.85 429.78,528.65 C432.12,536.48 449.76,561.39 467.72,582.25 C473.98,589.53 476.72,592.00 478.50,592.00 C479.91,592.00 483.42,589.90 487.03,586.89 C502.55,573.98 534.84,551.10 553.58,539.75 C558.58,536.72 571.40,529.42 582.08,523.53 C604.71,511.03 607.71,508.94 609.66,504.26 C611.72,499.35 610.54,495.49 605.24,489.83 C599.51,483.70 594.67,480.65 592.02,481.50 C588.55,482.60 589.77,485.14 597.00,491.93 C600.85,495.55 604.00,499.11 604.00,499.85 C604.00,502.15 598.68,506.31 589.78,510.97 L 581.24 515.45 L 568.37 506.86 C561.29,502.14 553.59,497.08 551.25,495.62 C547.32,493.18 547.00,492.65 547.03,488.74 C547.06,484.85 547.46,484.21 551.78,481.04 C554.38,479.14 560.18,473.81 564.69,469.20 L 572.87 460.81 L 580.19 462.45 C599.11,466.68 613.11,471.96 623.25,478.68 C630.55,483.52 633.28,487.24 637.56,498.14 C639.51,503.14 641.72,506.21 647.92,512.50 C656.85,521.56 660.01,526.99 659.98,533.21 C659.96,539.84 658.86,540.92 654.47,538.56 L 650.87 536.62 L 642.19 540.99 C613.57,555.38 598.09,561.34 555.50,574.35 C524.50,583.82 507.56,589.20 505.75,590.15 C503.67,591.25 503.46,594.30 505.36,595.88 C506.38,596.73 508.26,596.51 512.99,595.00 C513.36,594.89 513.71,594.77 514.04,594.67 C518.38,593.28 519.57,592.90 519.89,593.27 C520.01,593.41 520.01,593.65 520.00,593.99 C520.00,594.06 520.00,594.13 520.00,594.21 C520.00,595.30 507.01,626.91 499.95,643.00 C498.38,646.58 494.36,656.03 491.00,664.00 C480.40,689.19 474.69,702.07 473.91,702.56 C473.49,702.82 472.90,702.23 472.61,701.26 ZM 410.80 523.80 C411.46,523.14 412.00,521.77 412.00,520.76 C412.00,517.81 415.81,511.16 420.27,506.32 C423.58,502.73 424.19,501.52 423.35,500.17 C421.19,496.74 418.45,497.68 413.12,503.65 C408.57,508.76 404.00,517.62 404.00,521.34 C404.00,523.09 406.08,525.00 408.00,525.00 C408.88,525.00 410.14,524.46 410.80,523.80 ZM 349.50 804.99 L 339.00 805.00 L 339.07 798.75 L 339.14 792.50 L 341.02 796.74 C342.50,800.05 344.51,802.31 347.17,803.57 Z" fill="rgb(82,82,81)"/>
<path d="M 0.14 780.25 C0.21,639.38 0.63,540.51 1.12,546.00 C7.69,619.74 22.74,676.47 51.41,735.53 C66.63,766.88 80.40,789.60 101.40,818.00 C174.70,917.13 285.53,988.18 405.50,1012.94 C428.95,1017.78 458.67,1021.89 480.50,1023.31 C483.25,1023.49 376.26,1023.72 242.75,1023.82 L 0.00 1024.00 L 0.14 780.25 ZM 542.50 1023.35 C567.32,1021.39 584.94,1019.31 601.00,1016.43 C691.68,1000.14 771.46,962.89 842.50,903.65 C858.11,890.64 892.00,856.71 904.39,841.70 C916.13,827.49 934.61,801.93 945.07,785.45 C989.72,715.11 1016.80,632.85 1022.88,549.00 C1023.36,542.38 1023.78,640.78 1023.86,780.75 L 1024.00 1024.00 L 781.25 1023.83 C647.74,1023.74 540.30,1023.52 542.50,1023.35 ZM 447.00 749.50 L 447.00 730.00 L 473.55 730.00 L 500.10 730.00 L 499.80 735.68 L 499.50 741.36 L 492.01 743.20 C479.05,746.38 466.80,753.15 454.41,763.99 C451.27,766.75 448.31,769.00 447.84,769.00 C447.38,769.00 447.00,760.22 447.00,749.50 ZM 464.00 722.00 C464.00,721.45 463.30,721.00 462.44,721.00 C461.58,721.00 461.16,720.55 461.50,720.00 C461.84,719.45 461.53,718.99 460.81,718.98 C459.86,718.97 459.91,718.70 461.00,718.00 C462.74,716.87 483.08,716.87 487.50,718.00 C490.34,718.72 490.37,718.77 488.00,718.98 L 485.50 719.20 L 488.00 720.00 L 490.50 720.80 L 487.75 720.90 C486.24,720.96 485.00,721.45 485.00,722.00 C485.00,722.60 480.83,723.00 474.50,723.00 C468.17,723.00 464.00,722.60 464.00,722.00 ZM 0.14 243.25 L 0.00 0.00 L 241.25 0.08 C373.94,0.12 482.05,0.32 481.50,0.51 C480.95,0.70 474.42,1.36 467.00,1.97 C428.55,5.12 384.01,14.48 346.34,27.32 C262.90,55.76 186.15,106.96 127.94,173.00 C72.09,236.37 32.43,313.22 13.47,394.82 C7.38,421.07 4.25,441.89 1.07,477.50 C0.63,482.45 0.21,377.04 0.14,243.25 ZM 1022.99 477.75 C1022.98,470.85 1020.50,448.79 1017.90,432.50 C1002.87,338.17 965.17,255.73 902.66,180.50 C889.71,164.92 857.89,133.20 842.00,120.02 C784.92,72.70 725.46,40.82 656.20,20.39 C624.03,10.91 592.08,5.04 551.00,1.08 C546.33,0.63 650.84,0.21 783.25,0.13 L 1024.00 0.00 L 1024.00 241.50 C1024.00,374.33 1023.78,483.00 1023.50,483.00 C1023.22,483.00 1023.00,480.64 1022.99,477.75 Z" fill="rgb(254,254,254)"/>
</g>
</svg>